<?xml version="1.0" standalone="yes"?>
<svg xmlns="http://www.w3.org/2000/svg" width="1030" height="1512">
<path style="fill:#f3f3f3; stroke:none;" d="M521 1038.48C508.907 1039.85 501.286 1048.27 499.439 1060C498.014 1069.05 499 1078.85 499 1088L499 1140L499 1428L499 1470C499 1478.18 498.025 1487.05 500.301 1495C503.72 1506.94 515.064 1513.3 527 1511.81C536.786 1510.59 544.965 1502.71 546.671 1493C548.236 1484.09 547 1474.03 547 1465L547 1410L547 1123L547 1079C547 1071.63 548.135 1063.17 546.236 1056C543.321 1045 532.439 1037.18 521 1038.48M18 1044.53C-5.33023 1049.88 0 1078.12 0 1096L0 1255L0 1434L0 1475C0 1484.06 -0.370579 1492.71 6.3287 1499.81C17.3037 1511.45 40.5931 1507 55 1507C100.358 1507 146.435 1509.42 191 1499.58C209.133 1495.57 226.771 1489.19 243 1480.14C323.354 1435.31 337.806 1332.47 332.09 1249C328.874 1202.04 320.702 1154.19 292.572 1115C285.672 1105.39 277.831 1096.88 269 1089.05C218.859 1044.62 151.057 1044 88 1044L42 1044C34.3304 1044 25.5034 1042.81 18 1044.53M786 1313L878 1313C909.429 1313 940.657 1312.91 969 1297.14C1018.27 1269.71 1034.49 1213.19 1029.17 1160C1025.57 1123.96 1011.98 1088.62 981 1067.35C937.625 1037.56 883.909 1044 834 1044L784 1044C775.491 1044 766.447 1043.13 758 1044.19C748.111 1045.42 740.291 1053.35 738.468 1063C736.843 1071.6 738 1081.27 738 1090L738 1143L738 1420L738 1481C738 1493.1 739.442 1504.73 752 1510.12C767.793 1516.9 785.183 1506.1 785.961 1489C786.851 1469.42 786 1449.6 786 1430L786 1313z"/>
<path style="fill:rgba(0, 22, 40, 0.92); stroke:none;" d="M48 1087L48 1463C107.496 1463 177.293 1472.08 228 1434.1C280.12 1395.07 286.66 1319.84 284.039 1260C282.929 1234.66 280.731 1209.28 272.667 1185C264.205 1159.52 251.396 1135.68 230 1118.67C200.864 1095.49 165.066 1089.54 129 1087.96C102.048 1086.78 75.026 1087 48 1087M786 1087L786 1270L871 1270C896.484 1270 922.537 1270.01 945 1256.08C968.86 1241.3 978.5 1215.69 981.169 1189C984.71 1153.58 972.828 1114.28 939 1097.37C917.713 1086.73 893.188 1087 870 1087L786 1087M1029 1194C1028.99 1207.44 1025.8 1221.37 1021.31 1234C1017.77 1243.95 1012.87 1253.25 1007 1262C985.449 1294.11 949.357 1309.27 912 1312.83C897.248 1314.23 881.819 1313 867 1313L786 1313L786 1461C786 1479.12 790.375 1504.54 768 1511C774.678 1513.8 784.784 1512 792 1512L845 1512L1030 1512L1030 1287L1030 1223C1030 1214.47 1032.31 1201.88 1029 1194z"/>
</svg>
