<?xml version="1.0" encoding="UTF-8"?>
<svg xmlns="http://www.w3.org/2000/svg" xmlns:xlink="http://www.w3.org/1999/xlink" width="384pt" height="247pt" viewBox="0 0 384 247" version="1.1">
<g id="surface1">
<path style=" stroke:none;fill-rule:nonzero;fill:rgb(0%,0%,0%);fill-opacity:1;" d="M 46.667969 246.328125 L 26.488281 191.78125 L 20.378906 191.78125 L 0.191406 246.328125 L 6.316406 246.328125 L 23.433594 199.851562 L 40.550781 246.328125 Z M 46.667969 246.328125 "/>
<path style=" stroke:none;fill-rule:nonzero;fill:rgb(0%,0%,0%);fill-opacity:1;" d="M 381.65625 246.390625 L 361.46875 191.832031 L 355.359375 191.832031 L 335.179688 246.390625 L 341.296875 246.390625 L 358.421875 199.914062 L 375.53125 246.390625 Z M 381.65625 246.390625 "/>
<path style=" stroke:none;fill-rule:nonzero;fill:rgb(0%,0%,0%);fill-opacity:1;" d="M 255.039062 246.328125 L 234.851562 191.78125 L 228.742188 191.78125 L 208.554688 246.328125 L 214.679688 246.328125 L 231.796875 199.851562 L 248.914062 246.328125 Z M 255.039062 246.328125 "/>
<path style=" stroke:none;fill-rule:nonzero;fill:rgb(0%,0%,0%);fill-opacity:1;" d="M 94.089844 246.238281 L 76.492188 197.917969 L 76.207031 197.917969 C 76.539062 201.75 76.707031 206.296875 76.707031 211.566406 L 76.707031 246.25 L 71.132812 246.25 L 71.132812 191.707031 L 80.222656 191.707031 L 96.625 236.691406 L 96.914062 236.691406 L 113.484375 191.707031 L 122.519531 191.707031 L 122.519531 246.230469 L 116.496094 246.230469 L 116.496094 211.109375 C 116.496094 207.082031 116.660156 202.707031 116.996094 197.980469 L 116.707031 197.980469 L 98.964844 246.238281 Z M 94.089844 246.238281 "/>
<path style=" stroke:none;fill-rule:nonzero;fill:rgb(0%,0%,0%);fill-opacity:1;" d="M 184.265625 191.707031 L 190.757812 191.707031 L 172.0625 246.230469 L 166.097656 246.230469 L 147.523438 191.707031 L 153.90625 191.707031 L 165.828125 226.992188 C 167.152344 230.863281 168.242188 234.808594 169.097656 238.8125 C 169.964844 234.734375 171.078125 230.710938 172.4375 226.769531 Z M 184.265625 191.707031 "/>
<path style=" stroke:none;fill-rule:nonzero;fill:rgb(0%,0%,0%);fill-opacity:1;" d="M 285.710938 223.5625 L 285.710938 246.238281 L 279.675781 246.238281 L 279.675781 191.707031 L 293.902344 191.707031 C 300.265625 191.707031 304.964844 192.988281 308 195.546875 C 311.035156 198.105469 312.558594 201.960938 312.5625 207.109375 C 312.5625 214.320312 309.085938 219.195312 302.132812 221.730469 L 316.214844 246.230469 L 309.070312 246.230469 L 296.507812 223.554688 Z M 285.710938 218.125 L 293.964844 218.125 C 298.21875 218.125 301.339844 217.230469 303.328125 215.4375 C 305.316406 213.648438 306.3125 210.984375 306.3125 207.441406 C 306.3125 203.859375 305.300781 201.261719 303.277344 199.644531 C 301.253906 198.027344 298.003906 197.234375 293.535156 197.257812 L 285.695312 197.257812 Z M 285.710938 218.125 "/>
<path style=" stroke:none;fill-rule:nonzero;fill:rgb(0%,0%,0%);fill-opacity:1;" d="M 193.957031 0.609375 L 187.890625 0.609375 L 147.835938 108.882812 L 153.90625 108.882812 L 170.875 62.816406 L 187.839844 108.882812 L 194.027344 108.882812 L 210.992188 62.816406 L 227.957031 108.882812 L 234.019531 108.882812 Z M 190.917969 100.828125 L 173.890625 54.789062 L 190.917969 8.617188 L 207.957031 54.78125 Z M 190.917969 100.828125 "/>
</g>
</svg>
