<?xml version="1.0" encoding="UTF-8"?>
<svg xmlns="http://www.w3.org/2000/svg" xmlns:xlink="http://www.w3.org/1999/xlink" width="71pt" height="46pt" viewBox="0 0 71 46" version="1.1">
<g id="surface1">
<path style=" stroke:none;fill-rule:nonzero;fill:rgb(0%,13.72549%,30.196078%);fill-opacity:1;" d="M 8.628906 45.875 L 4.898438 35.714844 L 3.769531 35.714844 L 0.0351562 45.875 L 1.167969 45.875 L 4.332031 37.21875 L 7.496094 45.875 Z M 8.628906 45.875 "/>
<path style=" stroke:none;fill-rule:nonzero;fill:rgb(0%,13.72549%,30.196078%);fill-opacity:1;" d="M 70.566406 45.886719 L 66.835938 35.726562 L 65.703125 35.726562 L 61.972656 45.886719 L 63.105469 45.886719 L 66.269531 37.230469 L 69.433594 45.886719 Z M 70.566406 45.886719 "/>
<path style=" stroke:none;fill-rule:nonzero;fill:rgb(0%,13.72549%,30.196078%);fill-opacity:1;" d="M 47.15625 45.875 L 43.421875 35.714844 L 42.292969 35.714844 L 38.5625 45.875 L 39.695312 45.875 L 42.859375 37.21875 L 46.023438 45.875 Z M 47.15625 45.875 "/>
<path style=" stroke:none;fill-rule:nonzero;fill:rgb(0%,13.72549%,30.196078%);fill-opacity:1;" d="M 17.398438 45.859375 L 14.144531 36.859375 L 14.089844 36.859375 C 14.152344 37.574219 14.183594 38.417969 14.183594 39.402344 L 14.183594 45.859375 L 13.152344 45.859375 L 13.152344 35.703125 L 14.832031 35.703125 L 17.867188 44.082031 L 17.917969 44.082031 L 20.984375 35.703125 L 22.652344 35.703125 L 22.652344 45.855469 L 21.539062 45.855469 L 21.539062 39.316406 C 21.539062 38.566406 21.570312 37.75 21.632812 36.871094 L 21.578125 36.871094 L 18.296875 45.859375 Z M 17.398438 45.859375 "/>
<path style=" stroke:none;fill-rule:nonzero;fill:rgb(0%,13.72549%,30.196078%);fill-opacity:1;" d="M 34.070312 35.703125 L 35.269531 35.703125 L 31.8125 45.855469 L 30.710938 45.855469 L 27.277344 35.703125 L 28.457031 35.703125 L 30.660156 42.273438 C 30.90625 42.996094 31.105469 43.730469 31.265625 44.476562 C 31.425781 43.714844 31.632812 42.964844 31.882812 42.230469 Z M 34.070312 35.703125 "/>
<path style=" stroke:none;fill-rule:nonzero;fill:rgb(0%,13.72549%,30.196078%);fill-opacity:1;" d="M 52.828125 41.636719 L 52.828125 45.859375 L 51.710938 45.859375 L 51.710938 35.703125 L 54.339844 35.703125 C 55.519531 35.703125 56.386719 35.941406 56.949219 36.417969 C 57.507812 36.894531 57.789062 37.613281 57.792969 38.570312 C 57.792969 39.914062 57.148438 40.820312 55.863281 41.292969 L 58.46875 45.855469 L 57.144531 45.855469 L 54.824219 41.632812 Z M 52.828125 40.621094 L 54.351562 40.621094 C 55.140625 40.621094 55.71875 40.457031 56.085938 40.121094 C 56.453125 39.789062 56.636719 39.292969 56.636719 38.632812 C 56.636719 37.964844 56.449219 37.480469 56.074219 37.179688 C 55.699219 36.878906 55.101562 36.730469 54.273438 36.734375 L 52.824219 36.734375 Z M 52.828125 40.621094 "/>
<path style=" stroke:none;fill-rule:nonzero;fill:rgb(94.509804%,8.627451%,18.431373%);fill-opacity:1;" d="M 35.863281 0.113281 L 34.742188 0.113281 L 27.335938 20.277344 L 28.457031 20.277344 L 31.59375 11.699219 L 34.730469 20.277344 L 35.875 20.277344 L 39.011719 11.699219 L 42.148438 20.277344 L 43.269531 20.277344 Z M 35.300781 18.777344 L 32.152344 10.203125 L 35.300781 1.605469 L 38.449219 10.203125 Z M 35.300781 18.777344 "/>
</g>
</svg>
