<?xml version="1.0" encoding="UTF-8"?>
<svg xmlns="http://www.w3.org/2000/svg" xmlns:xlink="http://www.w3.org/1999/xlink" width="514pt" height="330pt" viewBox="0 0 514 330" version="1.1">
<g id="surface1">
<path style=" stroke:none;fill-rule:nonzero;fill:rgb(0%,0%,0%);fill-opacity:1;" d="M 62.464844 329.101562 L 35.453125 256.222656 L 27.277344 256.222656 L 0.253906 329.101562 L 8.453125 329.101562 L 31.367188 267.007812 L 54.277344 329.101562 Z M 62.464844 329.101562 "/>
<path style=" stroke:none;fill-rule:nonzero;fill:rgb(0%,0%,0%);fill-opacity:1;" d="M 510.863281 329.1875 L 483.839844 256.296875 L 475.664062 256.296875 L 448.652344 329.1875 L 456.839844 329.1875 L 479.765625 267.089844 L 502.664062 329.1875 Z M 510.863281 329.1875 "/>
<path style=" stroke:none;fill-rule:nonzero;fill:rgb(0%,0%,0%);fill-opacity:1;" d="M 341.382812 329.101562 L 314.359375 256.222656 L 306.183594 256.222656 L 279.160156 329.101562 L 287.359375 329.101562 L 310.269531 267.007812 L 333.183594 329.101562 Z M 341.382812 329.101562 "/>
<path style=" stroke:none;fill-rule:nonzero;fill:rgb(0%,0%,0%);fill-opacity:1;" d="M 125.945312 328.984375 L 102.386719 264.425781 L 102.003906 264.425781 C 102.449219 269.542969 102.671875 275.621094 102.671875 282.65625 L 102.671875 328.996094 L 95.214844 328.996094 L 95.214844 256.128906 L 107.382812 256.128906 L 129.339844 316.226562 L 129.722656 316.226562 L 151.90625 256.128906 L 164 256.128906 L 164 328.972656 L 155.933594 328.972656 L 155.933594 282.046875 C 155.933594 276.667969 156.15625 270.820312 156.601562 264.507812 L 156.21875 264.507812 L 132.46875 328.984375 Z M 125.945312 328.984375 "/>
<path style=" stroke:none;fill-rule:nonzero;fill:rgb(0%,0%,0%);fill-opacity:1;" d="M 246.648438 256.128906 L 255.339844 256.128906 L 230.3125 328.972656 L 222.328125 328.972656 L 197.464844 256.128906 L 206.011719 256.128906 L 221.96875 303.269531 C 223.738281 308.441406 225.199219 313.714844 226.34375 319.0625 C 227.503906 313.609375 228.996094 308.238281 230.8125 302.96875 Z M 246.648438 256.128906 "/>
<path style=" stroke:none;fill-rule:nonzero;fill:rgb(0%,0%,0%);fill-opacity:1;" d="M 382.4375 298.6875 L 382.4375 328.984375 L 374.359375 328.984375 L 374.359375 256.128906 L 393.398438 256.128906 C 401.917969 256.128906 408.207031 257.839844 412.269531 261.257812 C 416.335938 264.675781 418.371094 269.824219 418.378906 276.703125 C 418.378906 286.339844 413.726562 292.851562 404.417969 296.238281 L 423.265625 328.972656 L 413.707031 328.972656 L 396.886719 298.675781 Z M 382.4375 291.421875 L 393.480469 291.421875 C 399.179688 291.421875 403.359375 290.226562 406.019531 287.832031 C 408.679688 285.441406 410.011719 281.878906 410.011719 277.144531 C 410.011719 272.363281 408.65625 268.894531 405.949219 266.734375 C 403.238281 264.574219 398.890625 263.507812 392.910156 263.539062 L 382.414062 263.539062 Z M 382.4375 291.421875 "/>
<path style=" stroke:none;fill-rule:nonzero;fill:rgb(0%,0%,0%);fill-opacity:1;" d="M 259.617188 0.8125 L 251.503906 0.8125 L 197.882812 145.472656 L 206.011719 145.472656 L 228.722656 83.925781 L 251.429688 145.472656 L 259.714844 145.472656 L 282.421875 83.925781 L 305.132812 145.472656 L 313.246094 145.472656 Z M 255.554688 134.710938 L 232.761719 73.203125 L 255.554688 11.511719 L 278.359375 73.191406 Z M 255.554688 134.710938 "/>
</g>
</svg>
