<?xml version="1.0" encoding="UTF-8"?>
<svg xmlns="http://www.w3.org/2000/svg" xmlns:xlink="http://www.w3.org/1999/xlink" width="127pt" height="82pt" viewBox="0 0 127 82" version="1.1">
<g id="surface1">
<path style=" stroke:none;fill-rule:nonzero;fill:rgb(0%,13.72549%,30.196078%);fill-opacity:1;" d="M 15.433594 81.777344 L 8.761719 63.667969 L 6.738281 63.667969 L 0.0625 81.777344 L 2.089844 81.777344 L 7.75 66.347656 L 13.410156 81.777344 Z M 15.433594 81.777344 "/>
<path style=" stroke:none;fill-rule:nonzero;fill:rgb(0%,13.72549%,30.196078%);fill-opacity:1;" d="M 126.226562 81.796875 L 119.546875 63.6875 L 117.527344 63.6875 L 110.855469 81.796875 L 112.878906 81.796875 L 118.542969 66.367188 L 124.199219 81.796875 Z M 126.226562 81.796875 "/>
<path style=" stroke:none;fill-rule:nonzero;fill:rgb(0%,13.72549%,30.196078%);fill-opacity:1;" d="M 84.347656 81.777344 L 77.671875 63.667969 L 75.652344 63.667969 L 68.976562 81.777344 L 71 81.777344 L 76.664062 66.347656 L 82.324219 81.777344 Z M 84.347656 81.777344 "/>
<path style=" stroke:none;fill-rule:nonzero;fill:rgb(0%,13.72549%,30.196078%);fill-opacity:1;" d="M 31.117188 81.746094 L 25.296875 65.707031 L 25.203125 65.707031 C 25.3125 66.976562 25.367188 68.488281 25.367188 70.234375 L 25.367188 81.75 L 23.527344 81.75 L 23.527344 63.644531 L 26.53125 63.644531 L 31.957031 78.578125 L 32.050781 78.578125 L 37.53125 63.644531 L 40.519531 63.644531 L 40.519531 81.746094 L 38.527344 81.746094 L 38.527344 70.085938 C 38.527344 68.746094 38.582031 67.296875 38.695312 65.726562 L 38.597656 65.726562 L 32.730469 81.746094 Z M 31.117188 81.746094 "/>
<path style=" stroke:none;fill-rule:nonzero;fill:rgb(0%,13.72549%,30.196078%);fill-opacity:1;" d="M 60.941406 63.644531 L 63.089844 63.644531 L 56.90625 81.746094 L 54.933594 81.746094 L 48.789062 63.644531 L 50.902344 63.644531 L 54.84375 75.359375 C 55.28125 76.644531 55.644531 77.953125 55.925781 79.28125 C 56.210938 77.925781 56.582031 76.59375 57.03125 75.285156 Z M 60.941406 63.644531 "/>
<path style=" stroke:none;fill-rule:nonzero;fill:rgb(0%,13.72549%,30.196078%);fill-opacity:1;" d="M 94.492188 74.21875 L 94.492188 81.746094 L 92.496094 81.746094 L 92.496094 63.644531 L 97.203125 63.644531 C 99.304688 63.644531 100.859375 64.070312 101.863281 64.917969 C 102.867188 65.769531 103.371094 67.046875 103.375 68.757812 C 103.375 71.152344 102.222656 72.769531 99.925781 73.609375 L 104.582031 81.746094 L 102.21875 81.746094 L 98.0625 74.214844 Z M 94.492188 72.414062 L 97.222656 72.414062 C 98.628906 72.414062 99.664062 72.117188 100.320312 71.523438 C 100.976562 70.929688 101.304688 70.042969 101.304688 68.867188 C 101.304688 67.679688 100.972656 66.816406 100.300781 66.277344 C 99.632812 65.742188 98.558594 65.476562 97.082031 65.484375 L 94.488281 65.484375 Z M 94.492188 72.414062 "/>
<path style=" stroke:none;fill-rule:nonzero;fill:rgb(94.509804%,8.627451%,18.431373%);fill-opacity:1;" d="M 64.148438 0.203125 L 62.140625 0.203125 L 48.894531 36.148438 L 50.902344 36.148438 L 56.511719 20.855469 L 62.125 36.148438 L 64.171875 36.148438 L 69.78125 20.855469 L 75.390625 36.148438 L 77.398438 36.148438 Z M 63.144531 33.472656 L 57.511719 18.191406 L 63.144531 2.859375 L 68.777344 18.1875 Z M 63.144531 33.472656 "/>
</g>
</svg>
