<?xml version="1.0" encoding="UTF-8"?>
<svg xmlns="http://www.w3.org/2000/svg" xmlns:xlink="http://www.w3.org/1999/xlink" width="96pt" height="62pt" viewBox="0 0 96 62" version="1.1">
<g id="surface1">
<path style=" stroke:none;fill-rule:nonzero;fill:rgb(0%,13.72549%,30.196078%);fill-opacity:1;" d="M 11.667969 61.832031 L 6.621094 48.140625 L 5.09375 48.140625 L 0.046875 61.832031 L 1.578125 61.832031 L 5.859375 50.164062 L 10.136719 61.832031 Z M 11.667969 61.832031 "/>
<path style=" stroke:none;fill-rule:nonzero;fill:rgb(0%,13.72549%,30.196078%);fill-opacity:1;" d="M 95.414062 61.847656 L 90.367188 48.152344 L 88.839844 48.152344 L 83.796875 61.847656 L 85.324219 61.847656 L 89.605469 50.179688 L 93.882812 61.847656 Z M 95.414062 61.847656 "/>
<path style=" stroke:none;fill-rule:nonzero;fill:rgb(0%,13.72549%,30.196078%);fill-opacity:1;" d="M 63.761719 61.832031 L 58.710938 48.140625 L 57.1875 48.140625 L 52.140625 61.832031 L 53.671875 61.832031 L 57.949219 50.164062 L 62.230469 61.832031 Z M 63.761719 61.832031 "/>
<path style=" stroke:none;fill-rule:nonzero;fill:rgb(0%,13.72549%,30.196078%);fill-opacity:1;" d="M 23.523438 61.808594 L 19.121094 49.679688 L 19.050781 49.679688 C 19.132812 50.640625 19.175781 51.78125 19.175781 53.105469 L 19.175781 61.8125 L 17.785156 61.8125 L 17.785156 48.121094 L 20.054688 48.121094 L 24.15625 59.414062 L 24.226562 59.414062 L 28.371094 48.121094 L 30.628906 48.121094 L 30.628906 61.808594 L 29.125 61.808594 L 29.125 52.992188 C 29.125 51.980469 29.164062 50.882812 29.25 49.695312 L 29.175781 49.695312 L 24.742188 61.808594 Z M 23.523438 61.808594 "/>
<path style=" stroke:none;fill-rule:nonzero;fill:rgb(0%,13.72549%,30.196078%);fill-opacity:1;" d="M 46.066406 48.121094 L 47.691406 48.121094 L 43.015625 61.808594 L 41.523438 61.808594 L 36.878906 48.121094 L 38.476562 48.121094 L 41.457031 56.976562 C 41.789062 57.949219 42.0625 58.941406 42.273438 59.945312 C 42.492188 58.921875 42.769531 57.910156 43.109375 56.921875 Z M 46.066406 48.121094 "/>
<path style=" stroke:none;fill-rule:nonzero;fill:rgb(0%,13.72549%,30.196078%);fill-opacity:1;" d="M 71.429688 56.117188 L 71.429688 61.808594 L 69.917969 61.808594 L 69.917969 48.121094 L 73.476562 48.121094 C 75.066406 48.121094 76.242188 48.441406 77 49.085938 C 77.757812 49.726562 78.140625 50.695312 78.140625 51.988281 C 78.140625 53.796875 77.273438 55.019531 75.535156 55.65625 L 79.054688 61.808594 L 77.269531 61.808594 L 74.128906 56.113281 Z M 71.429688 54.75 L 73.492188 54.75 C 74.554688 54.75 75.335938 54.527344 75.832031 54.078125 C 76.328125 53.628906 76.578125 52.960938 76.578125 52.070312 C 76.578125 51.171875 76.324219 50.519531 75.820312 50.113281 C 75.3125 49.707031 74.5 49.507812 73.382812 49.515625 L 71.421875 49.515625 Z M 71.429688 54.75 "/>
<path style=" stroke:none;fill-rule:nonzero;fill:rgb(94.509804%,8.627451%,18.431373%);fill-opacity:1;" d="M 48.488281 0.152344 L 46.972656 0.152344 L 36.957031 27.332031 L 38.476562 27.332031 L 42.71875 15.769531 L 46.960938 27.332031 L 48.507812 27.332031 L 52.75 15.769531 L 56.988281 27.332031 L 58.503906 27.332031 Z M 47.730469 25.308594 L 43.472656 13.753906 L 47.730469 2.164062 L 51.988281 13.75 Z M 47.730469 25.308594 "/>
</g>
</svg>
