<?xml version="1.0" encoding="UTF-8"?>
<svg xmlns="http://www.w3.org/2000/svg" xmlns:xlink="http://www.w3.org/1999/xlink" width="152pt" height="98pt" viewBox="0 0 152 98" version="1.1">
<g id="surface1">
<path style=" stroke:none;fill-rule:nonzero;fill:rgb(0%,13.72549%,30.196078%);fill-opacity:1;" d="M 18.472656 97.734375 L 10.484375 76.089844 L 8.066406 76.089844 L 0.0742188 97.734375 L 2.5 97.734375 L 9.277344 79.292969 L 16.050781 97.734375 Z M 18.472656 97.734375 "/>
<path style=" stroke:none;fill-rule:nonzero;fill:rgb(0%,13.72549%,30.196078%);fill-opacity:1;" d="M 151.074219 97.757812 L 143.082031 76.113281 L 140.664062 76.113281 L 132.675781 97.757812 L 135.097656 97.757812 L 141.875 79.316406 L 148.648438 97.757812 Z M 151.074219 97.757812 "/>
<path style=" stroke:none;fill-rule:nonzero;fill:rgb(0%,13.72549%,30.196078%);fill-opacity:1;" d="M 100.953125 97.734375 L 92.960938 76.089844 L 90.542969 76.089844 L 82.554688 97.734375 L 84.976562 97.734375 L 91.753906 79.292969 L 98.527344 97.734375 Z M 100.953125 97.734375 "/>
<path style=" stroke:none;fill-rule:nonzero;fill:rgb(0%,13.72549%,30.196078%);fill-opacity:1;" d="M 37.246094 97.699219 L 30.277344 78.527344 L 30.164062 78.527344 C 30.296875 80.046875 30.363281 81.851562 30.363281 83.941406 L 30.363281 97.703125 L 28.15625 97.703125 L 28.15625 76.0625 L 31.753906 76.0625 L 38.246094 93.910156 L 38.359375 93.910156 L 44.921875 76.0625 L 48.5 76.0625 L 48.5 97.695312 L 46.113281 97.695312 L 46.113281 83.757812 C 46.113281 82.160156 46.179688 80.425781 46.308594 78.550781 L 46.195312 78.550781 L 39.175781 97.699219 Z M 37.246094 97.699219 "/>
<path style=" stroke:none;fill-rule:nonzero;fill:rgb(0%,13.72549%,30.196078%);fill-opacity:1;" d="M 72.9375 76.0625 L 75.507812 76.0625 L 68.109375 97.695312 L 65.746094 97.695312 L 58.394531 76.0625 L 60.921875 76.0625 L 65.640625 90.0625 C 66.164062 91.597656 66.597656 93.164062 66.933594 94.75 C 67.277344 93.132812 67.71875 91.535156 68.257812 89.972656 Z M 72.9375 76.0625 "/>
<path style=" stroke:none;fill-rule:nonzero;fill:rgb(0%,13.72549%,30.196078%);fill-opacity:1;" d="M 113.09375 88.703125 L 113.09375 97.699219 L 110.707031 97.699219 L 110.707031 76.0625 L 116.335938 76.0625 C 118.855469 76.0625 120.714844 76.570312 121.917969 77.585938 C 123.117188 78.601562 123.71875 80.128906 123.722656 82.171875 C 123.722656 85.035156 122.347656 86.96875 119.59375 87.972656 L 125.167969 97.695312 L 122.339844 97.695312 L 117.367188 88.699219 Z M 113.09375 86.542969 L 116.359375 86.542969 C 118.046875 86.542969 119.28125 86.1875 120.066406 85.476562 C 120.855469 84.769531 121.25 83.710938 121.25 82.304688 C 121.25 80.882812 120.847656 79.851562 120.046875 79.210938 C 119.246094 78.570312 117.960938 78.253906 116.191406 78.261719 L 113.085938 78.261719 Z M 113.09375 86.542969 "/>
<path style=" stroke:none;fill-rule:nonzero;fill:rgb(94.509804%,8.627451%,18.431373%);fill-opacity:1;" d="M 76.773438 0.242188 L 74.375 0.242188 L 58.519531 43.199219 L 60.921875 43.199219 L 67.636719 24.921875 L 74.351562 43.199219 L 76.800781 43.199219 L 83.519531 24.921875 L 90.234375 43.199219 L 92.632812 43.199219 Z M 75.574219 40.003906 L 68.832031 21.738281 L 75.574219 3.417969 L 82.316406 21.734375 Z M 75.574219 40.003906 "/>
</g>
</svg>
