<?xml version="1.0" encoding="UTF-8"?>
<svg xmlns="http://www.w3.org/2000/svg" xmlns:xlink="http://www.w3.org/1999/xlink" width="144pt" height="93pt" viewBox="0 0 144 93" version="1.1">
<g id="surface1">
<path style=" stroke:none;fill-rule:nonzero;fill:rgb(0%,13.72549%,30.196078%);fill-opacity:1;" d="M 17.5 92.746094 L 9.933594 72.207031 L 7.640625 72.207031 L 0.0703125 92.746094 L 2.367188 92.746094 L 8.789062 75.246094 L 15.207031 92.746094 Z M 17.5 92.746094 "/>
<path style=" stroke:none;fill-rule:nonzero;fill:rgb(0%,13.72549%,30.196078%);fill-opacity:1;" d="M 143.121094 92.769531 L 135.550781 72.230469 L 133.261719 72.230469 L 125.691406 92.769531 L 127.988281 92.769531 L 134.410156 75.269531 L 140.824219 92.769531 Z M 143.121094 92.769531 "/>
<path style=" stroke:none;fill-rule:nonzero;fill:rgb(0%,13.72549%,30.196078%);fill-opacity:1;" d="M 95.640625 92.746094 L 88.070312 72.207031 L 85.777344 72.207031 L 78.207031 92.746094 L 80.503906 92.746094 L 86.925781 75.246094 L 93.34375 92.746094 Z M 95.640625 92.746094 "/>
<path style=" stroke:none;fill-rule:nonzero;fill:rgb(0%,13.72549%,30.196078%);fill-opacity:1;" d="M 35.285156 92.714844 L 28.683594 74.519531 L 28.578125 74.519531 C 28.703125 75.960938 28.765625 77.675781 28.765625 79.65625 L 28.765625 92.71875 L 26.675781 92.71875 L 26.675781 72.183594 L 30.082031 72.183594 L 36.234375 89.117188 L 36.34375 89.117188 L 42.558594 72.183594 L 45.945312 72.183594 L 45.945312 92.710938 L 43.683594 92.710938 L 43.683594 79.484375 C 43.683594 77.96875 43.746094 76.324219 43.871094 74.542969 L 43.765625 74.542969 L 37.113281 92.714844 Z M 35.285156 92.714844 "/>
<path style=" stroke:none;fill-rule:nonzero;fill:rgb(0%,13.72549%,30.196078%);fill-opacity:1;" d="M 69.101562 72.183594 L 71.535156 72.183594 L 64.523438 92.710938 L 62.285156 92.710938 L 55.320312 72.183594 L 57.714844 72.183594 L 62.1875 85.464844 C 62.683594 86.925781 63.089844 88.410156 63.410156 89.917969 C 63.738281 88.382812 64.15625 86.867188 64.664062 85.382812 Z M 69.101562 72.183594 "/>
<path style=" stroke:none;fill-rule:nonzero;fill:rgb(0%,13.72549%,30.196078%);fill-opacity:1;" d="M 107.140625 84.175781 L 107.140625 92.714844 L 104.878906 92.714844 L 104.878906 72.183594 L 110.210938 72.183594 C 112.597656 72.183594 114.363281 72.664062 115.5 73.628906 C 116.636719 74.589844 117.207031 76.042969 117.210938 77.980469 C 117.210938 80.695312 115.90625 82.53125 113.300781 83.484375 L 118.582031 92.710938 L 115.902344 92.710938 L 111.191406 84.171875 Z M 107.140625 82.128906 L 110.234375 82.128906 C 111.832031 82.128906 113.003906 81.789062 113.75 81.117188 C 114.496094 80.441406 114.867188 79.4375 114.867188 78.105469 C 114.867188 76.757812 114.488281 75.777344 113.730469 75.171875 C 112.96875 74.5625 111.753906 74.261719 110.074219 74.269531 L 107.136719 74.269531 Z M 107.140625 82.128906 "/>
<path style=" stroke:none;fill-rule:nonzero;fill:rgb(94.509804%,8.627451%,18.431373%);fill-opacity:1;" d="M 72.734375 0.230469 L 70.460938 0.230469 L 55.4375 40.996094 L 57.714844 40.996094 L 64.078125 23.652344 L 70.441406 40.996094 L 72.761719 40.996094 L 79.121094 23.652344 L 85.484375 40.996094 L 87.757812 40.996094 Z M 71.59375 37.964844 L 65.210938 20.628906 L 71.59375 3.246094 L 77.984375 20.625 Z M 71.59375 37.964844 "/>
</g>
</svg>
