<?xml version="1.0" encoding="UTF-8"?>
<svg xmlns="http://www.w3.org/2000/svg" xmlns:xlink="http://www.w3.org/1999/xlink" width="193pt" height="124pt" viewBox="0 0 193 124" version="1.1">
<g id="surface1">
<path style=" stroke:none;fill-rule:nonzero;fill:rgb(0%,13.72549%,30.196078%);fill-opacity:1;" d="M 23.457031 123.664062 L 13.3125 96.277344 L 10.242188 96.277344 L 0.0976562 123.664062 L 3.175781 123.664062 L 11.777344 100.332031 L 20.382812 123.664062 Z M 23.457031 123.664062 "/>
<path style=" stroke:none;fill-rule:nonzero;fill:rgb(0%,13.72549%,30.196078%);fill-opacity:1;" d="M 191.824219 123.695312 L 181.675781 96.304688 L 178.605469 96.304688 L 168.464844 123.695312 L 171.539062 123.695312 L 180.144531 100.363281 L 188.742188 123.695312 Z M 191.824219 123.695312 "/>
<path style=" stroke:none;fill-rule:nonzero;fill:rgb(0%,13.72549%,30.196078%);fill-opacity:1;" d="M 128.183594 123.664062 L 118.039062 96.277344 L 114.96875 96.277344 L 104.820312 123.664062 L 107.898438 123.664062 L 116.503906 100.332031 L 125.105469 123.664062 Z M 128.183594 123.664062 "/>
<path style=" stroke:none;fill-rule:nonzero;fill:rgb(0%,13.72549%,30.196078%);fill-opacity:1;" d="M 47.289062 123.617188 L 38.445312 99.359375 L 38.300781 99.359375 C 38.46875 101.28125 38.550781 103.566406 38.550781 106.210938 L 38.550781 123.621094 L 35.753906 123.621094 L 35.753906 96.242188 L 40.320312 96.242188 L 48.566406 118.824219 L 48.707031 118.824219 L 57.039062 96.242188 L 61.578125 96.242188 L 61.578125 123.613281 L 58.550781 123.613281 L 58.550781 105.980469 C 58.550781 103.960938 58.632812 101.761719 58.800781 99.390625 L 58.65625 99.390625 L 49.742188 123.617188 Z M 47.289062 123.617188 "/>
<path style=" stroke:none;fill-rule:nonzero;fill:rgb(0%,13.72549%,30.196078%);fill-opacity:1;" d="M 92.613281 96.242188 L 95.875 96.242188 L 86.480469 123.613281 L 83.480469 123.613281 L 74.144531 96.242188 L 77.355469 96.242188 L 83.347656 113.957031 C 84.011719 115.898438 84.558594 117.878906 84.988281 119.890625 C 85.425781 117.839844 85.984375 115.824219 86.667969 113.84375 Z M 92.613281 96.242188 "/>
<path style=" stroke:none;fill-rule:nonzero;fill:rgb(0%,13.72549%,30.196078%);fill-opacity:1;" d="M 143.601562 112.234375 L 143.601562 123.617188 L 140.566406 123.617188 L 140.566406 96.242188 L 147.714844 96.242188 C 150.914062 96.242188 153.277344 96.882812 154.800781 98.167969 C 156.328125 99.453125 157.09375 101.390625 157.09375 103.972656 C 157.09375 107.59375 155.347656 110.042969 151.855469 111.3125 L 158.929688 123.613281 L 155.339844 123.613281 L 149.027344 112.230469 Z M 143.601562 109.503906 L 147.746094 109.503906 C 149.886719 109.503906 151.457031 109.054688 152.453125 108.15625 C 153.453125 107.257812 153.953125 105.917969 153.953125 104.140625 C 153.953125 102.34375 153.445312 101.039062 152.429688 100.226562 C 151.410156 99.414062 149.777344 99.015625 147.53125 99.027344 L 143.589844 99.027344 Z M 143.601562 109.503906 "/>
<path style=" stroke:none;fill-rule:nonzero;fill:rgb(94.509804%,8.627451%,18.431373%);fill-opacity:1;" d="M 97.484375 0.304688 L 94.4375 0.304688 L 74.304688 54.660156 L 77.355469 54.660156 L 85.882812 31.535156 L 94.410156 54.660156 L 97.519531 54.660156 L 106.046875 31.535156 L 114.574219 54.660156 L 117.621094 54.660156 Z M 95.957031 50.617188 L 87.398438 27.507812 L 95.957031 4.324219 L 104.519531 27.5 Z M 95.957031 50.617188 "/>
</g>
</svg>
